<svg xmlns="http://www.w3.org/2000/svg" height="200" fill="black" viewBox="0 0 425 200">
    <g transform="translate(0 25)">
        <path d="M35.6706 19.0318C34.8208 28.4918 27.3959 35.2457 17.8912 35.2457C7.84977 35.2457 0 27.5078 0 17.6229C0 7.73795 7.84977 0 17.8912 0C23.8624 0 29.118 2.75078 32.316 7.11176C32.6738 7.60377 32.562 8.07341 32.0477 8.34178L29.0509 10.0414C28.5589 10.3098 28.1339 10.2204 27.7538 9.75072C25.495 6.86576 21.9391 5.03191 17.8689 5.03191C10.8466 5.03191 5.27791 10.5335 5.27791 17.7123C5.27791 24.6675 10.5782 30.2138 17.9136 30.2138C23.6835 30.2138 28.2458 26.8145 29.8336 21.7826C29.9902 21.1564 29.6771 20.7762 29.0285 20.7762H21.7826C21.1787 20.7762 20.8656 20.4407 20.8656 19.8593V17.1085C20.8656 16.5047 21.1787 16.1916 21.7826 16.1916H34.7984C35.3799 16.1916 35.7154 16.527 35.7377 17.1308C35.7377 17.7794 35.7154 18.4056 35.6706 19.0318Z" transform="translate(0 57.2234)"/>
        <path fill-rule="evenodd" d="M78.2768 34.7984H74.8327C74.2289 34.7984 73.9158 34.4853 73.9158 33.8815V1.36421C73.9158 0.760377 74.2289 0.447281 74.8327 0.447281H87.0658C93.2607 0.447281 97.3309 4.87536 97.3309 10.3322C97.3309 14.2906 95.1169 17.4887 91.8294 18.9647C91.2479 19.2107 91.069 19.6133 91.3821 20.1724L99.3437 33.7026C99.7239 34.2841 99.4331 34.7984 98.7175 34.7984H95.0051C94.4907 34.7984 94.1329 34.5971 93.8869 34.1499L86.3278 20.5525C86.0818 20.1053 85.724 19.9263 85.2096 19.9263H80.1106C79.5068 19.9263 79.1937 20.2394 79.1937 20.8433V33.8815C79.1937 34.4853 78.8806 34.7984 78.2768 34.7984ZM79.1937 6.01592V14.4919C79.1937 15.0957 79.5068 15.4088 80.1106 15.4088H86.6409C89.9508 15.4088 92.1648 13.5526 92.1648 10.3322C92.1648 7.20122 89.9508 5.099 86.6409 5.099H80.1106C79.5068 5.099 79.1937 5.41209 79.1937 6.01592Z" transform="translate(0 57.2234)"/>
        <path fill-rule="evenodd" d="M135.308 34.7984H138.864C139.378 34.7984 139.713 34.5524 139.915 34.0604L142.241 28.1116C142.419 27.6196 142.777 27.3736 143.292 27.3736H158.007C158.499 27.3736 158.857 27.6196 159.036 28.1116L161.339 34.0604C161.518 34.5524 161.876 34.7984 162.391 34.7984H165.946C166.617 34.7984 166.908 34.3959 166.64 33.7473L153.713 1.14057C153.534 0.648557 153.177 0.447281 152.662 0.447281H148.57C148.078 0.447281 147.697 0.648557 147.518 1.14057L134.614 33.7473C134.346 34.3959 134.637 34.7984 135.308 34.7984ZM145.372 22.7219C144.678 22.7219 144.41 22.3193 144.634 21.6707L150.023 7.73795C150.336 6.97758 150.918 6.97758 151.209 7.73795L156.621 21.6707C156.844 22.3193 156.554 22.7219 155.883 22.7219H145.372Z" transform="translate(0 57.2234)"/>
        <path d="M208.888 34.7984H205.444C204.84 34.7984 204.527 34.4853 204.527 33.8815V1.36421C204.527 0.760377 204.84 0.447281 205.444 0.447281H223.447C224.029 0.447281 224.364 0.760377 224.364 1.36421V4.31626C224.364 4.92009 224.029 5.23318 223.447 5.23318H210.722C210.118 5.23318 209.805 5.56864 209.805 6.15011V14.3353C209.805 14.9168 210.118 15.2523 210.722 15.2523H221.524C222.105 15.2523 222.441 15.5654 222.441 16.1468V19.0989C222.441 19.6803 222.105 19.9934 221.524 19.9934H210.722C210.118 19.9934 209.805 20.3289 209.805 20.9104V33.8815C209.805 34.4853 209.492 34.7984 208.888 34.7984Z" transform="translate(0 57.2234)"/>
        <path d="M121.628 24.9496C134.661 37.6382 142.756 55.3738 142.756 75C142.756 94.6263 134.661 112.362 121.628 125.05C122.828 126.293 123.852 127.717 124.65 129.294C138.979 115.634 147.909 96.36 147.909 75C147.909 53.64 138.979 34.3655 124.65 20.7058C123.852 22.2827 122.828 23.7075 121.628 24.9496Z" transform="translate(276.985)"/>
        <path d="M94.0694 146.973C93.1003 145.495 92.3767 143.895 91.8987 142.235C85.8608 143.937 79.4911 144.847 72.9087 144.847C40.2582 144.847 12.8401 122.444 5.18784 92.1714C3.51182 92.5873 1.76486 92.7608 5.59101e-05 92.6612C7.94107 125.56 37.5708 150 72.9087 150C80.257 150 87.3584 148.943 94.0694 146.973Z" transform="translate(276.985)"/>
        <path d="M0 57.3389C1.7648 57.2393 3.51177 57.4128 5.18778 57.8287C12.8401 27.5558 40.2582 5.15267 72.9087 5.15267C79.4911 5.15267 85.8608 6.0632 91.8988 7.76515C92.3768 6.10541 93.1004 4.50543 94.0695 3.02666C87.3585 1.05678 80.2571 0 72.9087 0C37.5707 0 7.94096 24.4398 0 57.3389Z" transform="translate(276.985)"/>
        <path fill-rule="evenodd" d="M127.156 134.21C127.156 126.784 119.117 122.143 112.686 125.856C106.255 129.569 106.255 138.852 112.686 142.565C119.117 146.278 127.156 141.637 127.156 134.21ZM4.82347 80.2903C11.2548 84.0035 19.2939 79.3621 19.2939 71.9359C19.2939 64.5096 11.2548 59.8682 4.82347 63.5813C-1.60782 67.2945 -1.60782 76.5772 4.82347 80.2903ZM112.686 1.30683C106.255 5.01994 106.255 14.3027 112.686 18.0158C119.117 21.7289 127.156 17.0875 127.156 9.66132C127.156 2.23511 119.117 -2.40627 112.686 1.30683Z" transform="translate(268.361 3.06421)"/>
        <path d="M35.3244 17.6886C35.3244 4.09218 20.606 -4.40556 8.8311 2.39265C-2.9437 9.19084 -2.9437 26.1863 8.8311 32.9845C20.606 39.7827 35.3244 31.285 35.3244 17.6886Z" transform="translate(333.321 57.3665)"/>
    </g>
</svg>
