<svg width="376" height="136" xmlns="http://www.w3.org/2000/svg">
  <path
    d="M136.929 76.002H123.56l-3.478 7.587h-5.077l15.452-33.198 14.906 33.198h-5.157l-3.277-7.587zm-1.921-4.43l-4.632-10.621-4.854 10.62h9.486zM30.52 67.323H17.616v4.43h7.787c-.216 2.2-1.247 4.087-3.095 5.665-1.847 1.565-3.93 2.347-6.25 2.347-2.723 0-5.251-1.045-7.584-3.136-2.494-2.252-3.741-5.118-3.741-8.598 0-3.371 1.119-6.177 3.357-8.415 2.238-2.28 5.01-3.42 8.313-3.42 3.68 0 6.802 1.707 9.364 5.119l3.357-3.217c-1.955-2.238-3.944-3.857-5.966-4.855-2.117-.998-4.396-1.497-6.836-1.497-4.544 0-8.4 1.585-11.57 4.754C1.585 59.656 0 63.5 0 68.031c0 4.438 1.557 8.241 4.672 11.41 3.115 3.156 6.856 4.734 11.225 4.734 4.476 0 8.164-1.632 11.063-4.895 1.281-1.457 2.191-3.021 2.73-4.694.553-1.807.83-3.884.83-6.23v-1.032zM85.292 83.589l-9.668-13.312c2.077-.445 3.749-1.463 5.016-3.055 1.268-1.591 1.901-3.493 1.901-5.705 0-2.832-1.01-5.111-3.034-6.838-1.833-1.55-4.813-2.326-8.939-2.326h-5.521v31.236h4.712V70.803h.85l8.919 12.786h5.764zM71.256 66.696h-1.497v-9.913h1.679c4.341 0 6.512 1.599 6.512 4.795 0 3.412-2.231 5.118-6.694 5.118zM182.58 56.783h10.881v-4.43h-15.594v31.236h4.713v-14.87h10.497v-4.43H182.58v-7.506z"
    fill="#fff" />
  <path
    d="M359.547 23.643a22.491 22.491 0 01-3.086 3.725C365.683 38.357 371.237 52.53 371.237 68c0 15.417-5.516 29.545-14.681 40.518a22.52 22.52 0 013.068 3.749C369.832 100.372 376 84.907 376 68c0-16.949-6.199-32.45-16.453-44.357zM320.477 134.861a22.508 22.508 0 01-1.716-4.535 63.598 63.598 0 01-10.743.909c-27.315 0-50.584-17.327-59.419-41.593-1.544.444-3.14.726-4.763.831 9.278 26.512 34.51 45.527 64.182 45.527 4.256 0 8.42-.391 12.459-1.139zM243.907 45.324C253.242 18.918 278.421 0 308.018 0c4.222 0 8.355.385 12.364 1.122a22.48 22.48 0 00-1.671 4.543 63.619 63.619 0 00-10.693-.9c-27.244 0-50.464 17.238-59.351 41.405a22.519 22.519 0 00-4.76-.846z"
    fill="#BB6BD9" />
  <path
    d="M252.608 67.896c0-7.808-8.469-12.72-15.265-8.797-6.778 3.911-6.778 13.683 0 17.594 6.796 3.922 15.265-.99 15.265-8.797zM335.538 133.36c6.796 3.922 15.264-.99 15.264-8.797 0-7.808-8.468-12.72-15.264-8.798-6.778 3.912-6.778 13.683 0 17.595zM335.538 2.432c-6.778 3.912-6.778 13.683 0 17.595 6.796 3.922 15.264-.99 15.264-8.798 0-7.807-8.468-12.719-15.264-8.797zM296.433 56.5c-3.222 3.156-4.833 6.932-4.833 11.329 0 5.003 1.766 9.05 5.299 12.138 3.209 2.792 6.829 4.188 10.861 4.188 4.557 0 8.447-1.572 11.669-4.714 3.21-3.13 4.814-6.94 4.814-11.43 0-4.464-1.598-8.288-4.793-11.471-3.182-3.183-6.998-4.774-11.448-4.774-4.503 0-8.36 1.578-11.569 4.733z"
    fill="#fff" />
</svg>